<svg id="Layer_1" data-name="Layer 1" xmlns="http://www.w3.org/2000/svg" viewBox="0 0 141.73 141.73"><defs><style>.cls-1{fill:#fff;}.cls-2{fill:#f6ec36;}.cls-3{fill:#d01012;}</style></defs><title>lego-logo-menu2</title><g id="LEGO_LOGO_SMALL_RGB" data-name="LEGO LOGO SMALL RGB"><path class="cls-1" d="M1,.95V140.79H140.8V.95Z"/><path class="cls-2" d="M1,.95V140.79H140.8V.95ZM131.5,59.08a56.06,56.06,0,0,1-2.84,13.41C123.74,87.1,118,96.15,104.84,96.15c-3.89,0-10.78-1-13.32-7.95l-.6-1.64-1.08,1.37A21.5,21.5,0,0,1,73,96.22c-5,0-9.09-1.66-11.71-4.88l-.72-.88-.76.84c-2.8,3.09-7.67,4.86-13.36,4.86a14.5,14.5,0,0,1-10.88-4.28l-.69-.75-.72.73C31.33,94.7,26.88,96.14,21.28,96c-6.79-.16-10.92-4-11.06-10.14-.2-9.54,9-29.62,12.85-35.73,2.48-4.08,5.9-6.06,10.44-6.06,3.09,0,5.21.65,6.46,2s1.37,2.23,1.47,4.69l.13,3.17,1.68-2.7c4.05-6.53,10.77-7.43,17.43-7.43,4.63,0,8.67,1.7,10.29,4.34l.6,1,.87-.74a21,21,0,0,1,13.63-4.52c5.85,0,10.1,1.45,12.63,4.32a8,8,0,0,1,1.49,2.22l.65,1.37,1-1.15C105.53,46.2,110.6,44,116.89,44c5,0,8.76,1.32,11.23,3.94C131.23,51.19,131.67,55.79,131.5,59.08Z"/><path class="cls-3" d="M1,.95V140.79H140.8V.95ZM135.43,64.44c-.63,5.09-4.07,14.52-5.9,18.29-4.9,10.1-11.45,17.86-24.07,17.86-6.74,0-12.29-2.15-15.53-6.28a25.37,25.37,0,0,1-17,6.34,19.81,19.81,0,0,1-12.47-4,24.25,24.25,0,0,1-13.94,4,20,20,0,0,1-11.8-3.54c-3.53,2.34-8.15,3.51-13.58,3.38-9-.21-15.27-5.94-15.45-14.26C5.5,75.14,14.8,54.91,19.19,47.91a16.28,16.28,0,0,1,14.43-8.29c6.66,0,9.08,1.9,10.27,4.33,5.14-4.37,12-4.62,16.81-4.62,5.36,0,8.72,1.42,11.57,3.7a26.23,26.23,0,0,1,13.87-3.6c6.9,0,12,1.6,15.6,5.14,4.17-3.47,9.39-5,15.23-5,7.72,0,12.81,2.79,15.79,6.94C137,52.31,136.21,58.21,135.43,64.44Z"/><path d="M0,0V141.73H141.73V0ZM139.78,2V139.78H2V2Z"/><path d="M134.75,42.53v-1h.65c.48,0,.73.17.73.48s-.16.49-.65.49Zm2.35,2-.41-.71c-.35-.62-.45-.72-.76-.82v0a1,1,0,0,0,.95-1c0-.56-.35-1-1.11-1H134v3.52h.73V43.09h.13c.31,0,.43,0,.58.18a3.23,3.23,0,0,1,.48.69l.28.58ZM135.37,40a2.73,2.73,0,1,1-2.72,2.73A2.73,2.73,0,0,1,135.37,40Zm0-.67a3.4,3.4,0,1,0,3.4,3.4A3.39,3.39,0,0,0,135.37,39.37Z"/><path d="M116.89,43c-7.32,0-12.39,2.9-15.81,7a9,9,0,0,0-1.64-2.45c-2.81-3.17-7.31-4.65-13.36-4.65a21.81,21.81,0,0,0-14.26,4.75c-1.78-2.89-6-4.8-11.12-4.8-6.67,0-13.95.94-18.26,7.9-.1-2.5-.33-3.83-1.74-5.32-1.71-1.81-4.48-2.28-7.17-2.28-4.91,0-8.6,2.15-11.27,6.51C18.4,55.79,9,76.07,9.25,85.89c.14,6.34,4.39,10.92,12,11.1,6,.14,10.62-1.45,13.59-4.45,2.67,2.9,6.73,4.59,11.6,4.59,5.42,0,10.87-1.63,14.09-5.18,2.71,3.33,7,5.27,12.47,5.24A22.48,22.48,0,0,0,90.6,88.55c2.26,6.15,8,8.59,14.24,8.59,13.71,0,19.73-9.43,24.75-24.33a57.07,57.07,0,0,0,2.89-13.67C132.89,51.29,129.57,43,116.89,43ZM25.67,80.48c7.09-1.23,8.88,1.33,8.65,3.71-.67,7.11-7.19,8.7-12.85,8.57-4.11-.1-7.8-2-7.9-6.75-.18-8.34,8.33-27.64,12.33-34,1.85-3,4.1-4.54,7.7-4.54,3.41,0,4.25,1.75,4.2,3.84C37.67,56.86,28.64,73.84,25.67,80.48Zm23.1-6.55c-.47,1.27-1.36,3.93-2.08,6.75a23.11,23.11,0,0,1,7.06-.91c3.41.08,5.59,1.5,5.59,4.31,0,6.83-7.55,8.84-12.79,8.84-5.75,0-10.8-3.28-10.8-9.56,0-7.37,4-18.55,7.75-26C48.11,48.2,52.81,47,60.92,47c3.56,0,7.67,1.52,7.67,4.89,0,4.66-3.95,6.44-7.87,6.67a55,55,0,0,1-5.79.08,32.72,32.72,0,0,0-2.69,5.52c7.25-1,10.33.63,9.1,4.82C59.69,74.63,54.78,75,48.77,73.93ZM84.44,56.29a5.16,5.16,0,0,0-4.2,2.58c-2.1,3-6.66,14.78-7.36,19.64-.49,3.33,1,4,2.52,4,2.52,0,5.35-2.67,6.31-7.06,0,0-4.8-.12-3.47-4.37S82,66.06,86,65.9c8-.32,7.18,5.55,6.54,8.69C90.46,84.77,83.22,92.94,73,92.94c-7,0-11.37-3.88-11.37-11,0-5.1,2.53-13.1,4.53-17.78,4.27-10,8.74-16.94,20.14-16.94,6.84,0,12.24,2.46,11.44,8.87-.58,4.7-2.93,7.47-7.21,7.8-1.2.09-6.09,0-4.47-4.66C86.61,57.56,86.84,56.29,84.44,56.29Zm43.06,8.41a68.78,68.78,0,0,1-6.86,18.39c-4.8,8.63-10.63,9.84-15.72,9.78S94.08,90.94,94,83.08c0-5.64,2.4-13.6,4.47-18.82,3.6-9.46,7.28-17.17,18.9-17C131,47.4,128.55,59.46,127.5,64.71ZM116,56.49a3.19,3.19,0,0,0-3.09,1.62c-2.05,2.66-8,19-7.94,22.31a2.05,2.05,0,0,0,2.13,2.2c1.66,0,2.58-1.14,3.4-2.53,1.89-3.19,7.19-17.68,7.34-21.3C117.87,57.74,117.69,56.51,116,56.49Z"/></g></svg>